/* XPM */
static char * safe32_xpm[]={
"32 32 616 2",
"ax c #00002a",
"aa c #00002e",
"#3 c #000034",
"#I c #000037",
"#v c #000041",
".V c #000043",
".3 c #000045",
"#h c #000049",
"hz c #00004b",
"cf c #00004d",
".W c #000050",
"db c #000052",
".2 c #000053",
"du c #000058",
"ho c #000357",
"bu c #00054f",
".X c #000557",
"eo c #000755",
".1 c #000858",
"#2 c #00094f",
"e9 c #000a58",
"#u c #000a5b",
".Y c #000b5c",
"#J c #000c52",
"g6 c #000c62",
".0 c #000d5c",
"aw c #000e49",
"ab c #000e4a",
"a6 c #000e4e",
".Z c #000e5a",
"#i c #000f5f",
"hg c #000f64",
"gV c #001264",
"f6 c #001363",
"hq c #001761",
"cM c #001863",
"gI c #00186b",
"c6 c #001964",
"fI c #00196a",
"ej c #001b66",
"cl c #001c64",
"hc c #001e67",
"aN c #00206b",
"d0 c #00216b",
"e3 c #00216c",
"aO c #00236f",
"gi c #002571",
"ag c #00276b",
"gq c #002777",
"a9 c #00296d",
"hf c #00296e",
"dT c #002a6f",
"g2 c #002a71",
"fv c #002a72",
"aP c #002a77",
"hd c #002c70",
"dA c #002d70",
"eO c #002f74",
"gP c #003175",
"gx c #003177",
"f0 c #003377",
"aQ c #00357e",
"ba c #003780",
"aM c #003b7d",
"bg c #003c83",
"fp c #003d7d",
"aR c #003d7f",
"gb c #00407f",
"fO c #004181",
"bB c #00438c",
"bK c #004686",
"b5 c #004691",
"c# c #004c90",
"fx c #00538e",
"fY c #00538f",
"cQ c #005490",
"cB c #005591",
"fn c #005691",
"dr c #005692",
"cq c #005794",
"gm c #005893",
"gk c #005894",
"fa c #005994",
"cu c #0059a5",
"gl c #005a94",
"de c #005a95",
"dQ c #005b95",
"f8 c #005c96",
"eE c #005c97",
"fy c #005c98",
"ef c #005d97",
"c1 c #005d98",
"er c #005e99",
"b6 c #005e9c",
"fP c #005f98",
"d4 c #005f99",
"cA c #005f9a",
"b7 c #005fa1",
"g# c #00609b",
"fm c #00619c",
"f9 c #00629c",
"dq c #00639d",
"e2 c #00639f",
"eD c #0063a0",
"cz c #0063a2",
"fb c #00649e",
"fT c #0064a6",
"fX c #00659f",
"df c #0065a0",
"ee c #0065a1",
"fS c #0065a6",
"fl c #0065a8",
"dP c #0066a0",
"g. c #0066a1",
"cR c #0066a6",
"cy c #0066ab",
"fQ c #0067a1",
"c0 c #0068a2",
"dE c #006aa4",
"fz c #006ab0",
"fR c #006ba7",
"es c #006baa",
"eR c #006bad",
"fG c #006bae",
"fW c #006ca8",
"fU c #006cae",
"d5 c #006da6",
"fc c #006dae",
"dp c #006ea9",
"dg c #006fae",
"fV c #006faf",
"dO c #0071b4",
"cZ c #0072ac",
"cv c #0072af",
"cx c #0074af",
"dF c #0076b0",
"cw c #0078b1",
"d6 c #007ab5",
"cY c #007bbb",
"cX c #007ec2",
"dG c #0082c0",
"eW c #0084c8",
"eV c #0086cb",
"d7 c #0088c1",
"e. c #0089c9",
"eX c #008ed4",
"e# c #008fd3",
"d9 c #0091cd",
"d8 c #0095ce",
"ey c #0097ce",
"ew c #0097cf",
"ez c #0097da",
"ex c #0098cf",
"aE c #011149",
"#t c #011563",
"hp c #012569",
"#p c #01256a",
"#n c #01266a",
"ar c #01266b",
"#X c #01276b",
"#O c #01286b",
"aI c #01286c",
"#W c #012a6d",
"aq c #012a6e",
"#P c #012b6f",
"#V c #012c6f",
"he c #012d6f",
"eH c #013678",
"b1 c #014f8b",
"c2 c #01528e",
"d3 c #01538e",
"bn c #02104e",
"#j c #021662",
"bW c #02246a",
"#o c #02266b",
"bw c #02286c",
"cm c #02296c",
"c5 c #022a6d",
"ah c #022b6f",
"#Q c #022c6f",
"bX c #022d70",
"#S c #022f72",
"eg c #02508b",
"dD c #02518c",
"gj c #02518d",
"ev c #0296cf",
"cF c #031c65",
"cd c #032269",
"#N c #032369",
"#m c #03256a",
"bN c #032d70",
"aV c #032e70",
"#U c #032e71",
"#R c #032f70",
"#T c #032f71",
"bx c #032f72",
"ai c #033072",
"g5 c #033475",
"bZ c #033d7d",
"cO c #033f7d",
"gS c #034280",
"f. c #034481",
"gD c #034e89",
"gC c #034e8a",
"eF c #034f8b",
"gn c #034f8c",
"eQ c #03508b",
"fH c #03508c",
"a8 c #042268",
"aH c #042368",
"#Y c #042469",
"#q c #042569",
"bk c #042f70",
"b. c #042f72",
"cn c #043174",
"aU c #043275",
"ap c #043374",
"cc c #043375",
"aj c #043474",
"aJ c #043475",
"g4 c #043678",
"dS c #043779",
"al c #043979",
"an c #043a7a",
"bi c #043b7a",
"cb c #043b7c",
"ep c #043c7b",
"bM c #043c7c",
"aL c #043d7d",
"aS c #043e7d",
"bz c #043f7d",
"ds c #04407f",
"gU c #04417e",
"gH c #04417f",
"gR c #044180",
"gT c #04427f",
"gp c #044280",
"cD c #044281",
"bh c #044382",
"f# c #044c88",
"gE c #044c89",
"dR c #044d8b",
"cp c #044e89",
"aZ c #051349",
"#M c #052067",
"af c #052268",
"bY c #053476",
"bj c #053477",
"cN c #053576",
"ao c #053577",
"g3 c #053676",
"ak c #053677",
"by c #053777",
"cE c #053778",
"dc c #053779",
"ei c #05387a",
"aT c #053978",
"dB c #053979",
"am c #053a7a",
"d1 c #053c7a",
"c4 c #053d7c",
"gQ c #053f7d",
"gy c #05417f",
"co c #054381",
"eG c #054382",
"eh c #054481",
"b# c #054482",
"bL c #054483",
"dC c #054582",
"gG c #054583",
"d2 c #054684",
"gB c #054c88",
"dd c #054d89",
"#s c #061e67",
"bO c #061f67",
"as c #062067",
"#k c #062068",
"aW c #062167",
"#r c #062268",
"#l c #062368",
"dt c #063576",
"aK c #06387a",
"eP c #064483",
"gz c #064584",
"eq c #064683",
"bA c #064684",
"b0 c #064784",
"c3 c #064785",
"cC c #064c88",
"f7 c #064d88",
"ca c #064d8a",
"ae c #071c66",
"fw c #074885",
"gF c #074985",
"go c #074986",
"cP c #074987",
"gA c #074a85",
"ga c #074a87",
"fo c #074b87",
"#1 c #08165e",
"aG c #081b66",
"at c #081c66",
"#Z c #081e67",
"bV c #081e68",
"fZ c #084987",
"#K c #091761",
"ce c #091c66",
"aF c #0a1759",
"av c #0a1958",
"aX c #0a1960",
"bl c #0a1a65",
"#L c #0a1b67",
"#0 c #0a1c66",
"fN c #0a2969",
"do c #0a78b3",
"aY c #0b1856",
"bP c #0b1865",
"ac c #0b195b",
"bm c #0b195d",
"a7 c #0b1960",
"au c #0b1962",
"ad c #0b1963",
"bv c #0b1a65",
"b2 c #0b568d",
"dH c #0b90c7",
"#g c #0c175b",
"eY c #0c96d2",
"#w c #0f1951",
"dz c #0f296e",
"a0 c #111943",
"b8 c #1165a2",
"eI c #12327a",
"et c #1275a6",
"g1 c #13296b",
"cG c #162168",
"gO c #163370",
"hb c #1e316f",
"hr c #222571",
"fF c #227cad",
"cr c #23628c",
"gc c #244388",
"ck c #263079",
"fq c #284688",
"dU c #33427c",
"e1 c #358abc",
".U c #363c7d",
"gw c #37517d",
"aD c #383c65",
"cW c #3891bc",
".4 c #393d6f",
"bf c #3e648b",
"ea c #419bc2",
"bo c #4d4a67",
"hn c #515987",
"dh c #5283a0",
"#4 c #53546c",
"eu c #5a8ca8",
"#E c #5d5c5d",
"fA c #5e91b3",
"ay c #60606d",
"#H c #61617f",
"hA c #626395",
"c7 c #646284",
"bJ c #66788d",
"eS c #696768",
"hK c #696a6c",
"gs c #6a6c6d",
"fK c #6c6e70",
"fk c #6d889c",
"a5 c #6f6c81",
"hC c #6f7072",
"bQ c #707383",
"#c c #717071",
"hI c #717175",
"gK c #717272",
".T c #737693",
".P c #747272",
"bb c #7487a2",
"eN c #757ea1",
"cL c #76789a",
"eA c #76909d",
"fE c #7695a5",
"e5 c #777677",
"ht c #777776",
"ge c #77787b",
"f1 c #7782a6",
"gX c #787876",
"el c #787877",
"#f c #79788d",
".w c #7a797a",
"#b c #7b7979",
"hi c #7b7a78",
"bT c #7b7a7c",
"dw c #7b7c7d",
"g8 c #7c7c78",
"hw c #7d7e7f",
"c. c #7f8d9c",
"#F c #807f7e",
"dn c #809198",
"f2 c #827f7b",
"#x c #827f8f",
"a. c #82807e",
"ed c #82accb",
".E c #848aab",
"ch c #858587",
".F c #858cad",
".O c #868585",
"a# c #86858c",
"bC c #86898d",
"hF c #878886",
"bR c #888887",
"hl c #888989",
"ek c #898d9b",
"c8 c #8b8b87",
"bG c #8b9faf",
"cV c #8bbeda",
"dI c #8bc4df",
"#d c #8c8a86",
"a4 c #8c8b88",
"bs c #8c8c8b",
"hE c #8c8c8c",
".D c #8c92ad",
".5 c #8d8a9f",
"aC c #8d8b86",
"hH c #8e8d87",
"#7 c #8e8d8e",
".i c #8f9095",
"bt c #8f909f",
"e4 c #8f93a1",
"dM c #918f8f",
"h# c #919191",
"hj c #919393",
"fs c #929497",
".x c #939393",
"eK c #939597",
"#9 c #949293",
"gh c #9492a2",
".Q c #949391",
"g9 c #949496",
"eC c #95b6d1",
"hL c #98999b",
"cs c #998e88",
"#B c #999999",
"fu c #999aaf",
"dZ c #9a96ae",
"#A c #9a9a9a",
"eB c #9b928f",
"ec c #9b9492",
"hu c #9b9c9d",
"dV c #9c988e",
"bp c #9c9c99",
"gZ c #9d9d9c",
"be c #9d9d9e",
"eT c #a08f87",
".G c #a0a1bb",
"hy c #a19aa8",
"bF c #a2bcd2",
"eZ c #a3908a",
"b3 c #a59286",
"gY c #a5a4a6",
"eb c #a6918a",
"bI c #a69b92",
"ci c #a6a7a7",
".h c #a6a7a8",
"fd c #a78f85",
"fr c #a79f91",
"#D c #a7a6a6",
"aA c #a7a6a7",
"d# c #a7a8ab",
"dL c #a89e9a",
"cH c #a8a69a",
"az c #a8a8a5",
".y c #a8a9a7",
"b9 c #a9988f",
".v c #a9a7a7",
"hx c #aaa89d",
"#8 c #aaaaaa",
"fj c #ab968a",
".C c #aba7b9",
".j c #acaeb0",
"a1 c #adaca5",
"#6 c #adadab",
"gd c #aea597",
"f3 c #aeafaf",
"eU c #aeb7c1",
"cS c #af8f7e",
"eJ c #afa897",
"cg c #afada2",
"cI c #afafb0",
"dv c #b0aca4",
"gW c #b0adb6",
".9 c #b0afae",
"aB c #b0afaf",
"dW c #b0b1b2",
"g7 c #b1adb7",
".S c #b4b3b7",
"fD c #b4b8b9",
"gJ c #b5b0b1",
"fJ c #b5b1ae",
"hh c #b5b1b3",
"gM c #b5b5b4",
"hB c #b6b3a4",
"cK c #b6b8b8",
"e0 c #b7a094",
"hs c #b7b5ae",
"dx c #b7b7b9",
"cT c #b7babf",
"gr c #b8b0a7",
"#G c #b9b6ac",
"#z c #b9b9b6",
".g c #bababa",
".z c #bbbdb6",
"bH c #bead9f",
"#. c #bfbdbd",
"cj c #c0c0b6",
"dN c #c1a293",
"fi c #c1a295",
"a3 c #c1bfc0",
"en c #c1c1c2",
"#5 c #c2c2b6",
".k c #c2c3c4",
"hm c #c4bead",
".R c #c4c2b5",
"fB c #c4dae5",
"#e c #c5c3b9",
"a2 c #c5c4c4",
".B c #c6c9cd",
"bD c #c7c2c1",
"hG c #c7c4ba",
".H c #c7c6d2",
"dm c #c8a695",
"fh c #c8bcb7",
"ha c #c8c2b0",
"cJ c #c8c8c8",
"gL c #c9cacb",
"dl c #cbbdb7",
"fe c #cbc1be",
"g0 c #cec6b4",
".8 c #cecdcb",
".l c #cfcfcf",
"dX c #d2d1d1",
"da c #d3d1d0",
"bq c #d4d4d4",
"gu c #d4d4d5",
"eL c #d5d5d4",
"ct c #d7cbc6",
".L c #d7d5d5",
".N c #d8d7d7",
"bU c #d9d9d0",
".m c #dadbd8",
"b4 c #dbd0ca",
"c9 c #dbdadb",
"#y c #dcdacc",
"dY c #dedfde",
"dJ c #deeaee",
".K c #dfdedb",
".f c #dfdede",
"e8 c #e0e0e0",
"gN c #e1d7c6",
".b c #e1e1e1",
"gg c #e2e0da",
".M c #e2e1e0",
"ft c #e2e3e2",
".6 c #e3e2d8",
"di c #e4c3b8",
".c c #e4e4e4",
"br c #e5e4e4",
".a c #e5e5e4",
"hJ c #e5e5e6",
"hk c #e6e4e4",
".n c #e6e5e3",
"hv c #e6e5e5",
"fC c #e7eff0",
"f5 c #e8e4dc",
"## c #e9e8e8",
"fM c #e9e9e8",
"e6 c #e9e9e9",
"gv c #eae2d6",
".d c #ebebeb",
"dK c #edc4b5",
".q c #eeeeee",
"#a c #eeeeef",
".o c #efeeec",
"h. c #efefee",
".e c #f0eff0",
".u c #f0f1f0",
"bd c #f2dbc8",
".J c #f2f2ef",
"dy c #f3eee3",
"gf c #f3f3f3",
".p c #f4f5f3",
".7 c #f5f2e7",
".# c #f5f4f3",
"hD c #f5f4f4",
"gt c #f5f5f5",
"em c #f5f5f6",
"#C c #f6f6f6",
".r c #f6f7f6",
".A c #f7f6e7",
"fg c #f8f6f2",
"d. c #f9f9f8",
"fL c #f9f9f9",
"f4 c #faf9f9",
"bS c #faf9fa",
".t c #fafaf9",
".s c #fafafa",
"e7 c #fcfcfc",
"dj c #fdf5f4",
"dk c #fff9f4",
"cU c #fffff8",
"bE c #fffff9",
"ff c #fffffa",
"eM c #fffffc",
"bc c #fffffd",
".I c #fffffe",
"Qt c #ffffff",
"QtQtQtQtQtQtQtQtQtQtQtQt.#.a.b.b.c.d.eQtQtQtQtQtQtQtQtQtQtQtQtQt",
"QtQtQtQtQtQtQtQt.f.g.h.i.j.k.l.m.n.o.p.q.r.s.tQtQtQtQtQtQtQtQtQt",
"QtQtQtQtQt.u.v.w.x.y.z.A.B.C.D.E.F.G.H.IQtQt.J.K.L.MQtQtQtQtQtQt",
"QtQtQt.N.O.P.Q.R.S.T.U.V.W.X.Y.Z.0.1.2.3.3.4.5.6.7.8.9#.##QtQtQt",
"Qt#a#b#c#d#e#f#g#h#i#j#k#l#m#n#o#o#p#q#r#s#t#u#v#w#x#y#z#A#B#CQt",
"#D#E#F#G#H#I#J#K#L#M#N#O#P#Q#R#S#T#U#V#W#X#Y#Z#0#1#2#3#4#5#6#7#8",
"#9a.a#aaabacadaeafagahaiajakalamanalaoapaiaqarasatauavawaxayazaA",
"aBaCaDaEaFauaGaHaI#TaJaKaLaMaNaOaPaQaRaSaTaUaVaIaWaGaXaYaZa0a1a2",
"a3a4a5a6a7aGa8a9b.akaLb#babbbcQtbdbebfbgbhbibjbkaIasblbmbnbobpbq",
"brbsbtbubvaWbwbxbybzbAbBbCbDbEbFbGbHbIbJbKbLbMbjbN#obObP#JbQbRbS",
"QtbTbU#vbVbWbXbYbZb0b1b2b3b4b5b6b7b8b9c.c#cabLcbccaqcdcecfcgchQt",
"QtcicjckclcmcnamcocpcqcrcsctcucvcwcxcyczcAcBcCcDcEb.#ocFcGcHcIQt",
"QtcJcKcLcM#QcNcOcPcQcAcRcScTcUcVcWcXcYcZc0c1c2c3c4ccc5c6c7c8c9Qt",
"Qtd.d#dadbaidccodddedfdgdhdidjdkdldmdndodpdqdrcCdsdtbXdudvdwQtQt",
"QtQtdxdydzdAdBdCdDc1dEdFdGdHdIdJdKdLdMdNdOdPdQdRcodSdTdUdVdWQtQt",
"QtQtdXdYdZd0d1d2d3d4d5d6d7d8d9e.e#eaebecedeeefegeheiejekelemQtQt",
"QtQtQtenbceoepeqc2ereseteuevewexeyezeAeBeCeDeEeFeGeHeIeJeKQtQtQt",
"QtQtQteLeMeNeOePeQefeReSeTeUeVeWeXeYeZe0e1e2decpcoe3e4e5e6QtQtQt",
"QtQtQte7e8Qte9f.f#fafbfcfdfefffgfhfifjfkflfmfnfofpfqfrfsQtQtQtQt",
"QtQtQtQtftQtfufvfwfxfyc0fzfAfBfCfDfEfFfGdPdQfHb0fIfJfKfLQtQtQtQt",
"QtQtQtQtQtfMQtfNfOcCfnfPfQfRfSfTfUfVfWfXeffYfZf0f1f2f3QtQtQtQtQt",
"QtQtQtQtQtf4.nf5f6bAf7cBf8f9g.c0c0fXg#defYgagbgcgdgeQtQtQtQtQtQt",
"QtQtQtQtQtQtgfggghgib#gagjfngkdeglgmcQgngogpgqgrgsgtQtQtQtQtQtQt",
"QtQtQtQtQtQtQtgugvgwgxgygzgAgBgCgDgEgFgGgHgIgJgKgLQtQtQtQtQtQtQt",
"QtQtQtQtQtQtQtQtgMgNgOgPbigQgRgSgTgUc4epgVgWgXgYQtQtQtQtQtQtQtQt",
"QtQtQtQtQtQtQtQtf4gZg0g1g2aJg3akg4cNg5g6g7g8g9QtQtQtQtQtQtQtQtQt",
"QtQtQtQtQtQtQtQtQth.h#hahbhchdbXhehfhghhhihjQtQtQtQtQtQtQtQtQtQt",
"QtQtQtQtQtQtQtQtQtQthkhlhmhnhohphqhrhshthuQtQtQtQtQtQtQtQtQtQtQt",
"QtQtQtQtQtQtQtQtQtQtQthvhwhxhyhzhAhBhCdxQtQtQtQtQtQtQtQtQtQtQtQt",
"QtQtQtQtQtQtQtQtQtQtQtQthDhEhFhGhHhIhJQtQtQtQtQtQtQtQtQtQtQtQtQt",
"QtQtQtQtQtQtQtQtQtQtQtQtQtQt.ghKhLQtQtQtQtQtQtQtQtQtQtQtQtQtQtQt",
"QtQtQtQtQtQtQtQtQtQtQtQtQtQtQt.sQtQtQtQtQtQtQtQtQtQtQtQtQtQtQtQt"};
