/* XPM */
static char * safe16_xpm[]={
"16 16 175 2",
".U c #00002c",
".B c #000046",
".u c #000050",
"#r c #000255",
".I c #000550",
"#B c #00065c",
".T c #00074d",
"aJ c #000a5d",
"aK c #000b62",
".A c #00105e",
".v c #001360",
".N c #001462",
"aE c #001669",
"#b c #001762",
"#m c #001764",
"af c #001b6a",
".z c #001c64",
".w c #001f66",
"aw c #002372",
".y c #002469",
".x c #00266a",
"#2 c #002773",
".O c #002776",
".Z c #00296c",
"aB c #002972",
"am c #002a7b",
"#g c #002b8a",
"#T c #002c72",
"ar c #003179",
".M c #003378",
".P c #00367a",
"#O c #003a7c",
".1 c #003c83",
".5 c #003e81",
"aa c #004c88",
"#e c #00508a",
"#j c #005091",
"#6 c #00518c",
"#1 c #00538f",
"#N c #00548f",
"ai c #00569d",
"#G c #005893",
"#U c #005895",
"#h c #005da9",
"a# c #005ea0",
"#u c #0061a7",
"ah c #0062a0",
"ak c #0063a0",
"#7 c #0063a6",
"#y c #0065a0",
"aj c #0066ac",
"#H c #0074af",
"#X c #007bc9",
"#I c #0085cd",
"#Y c #0090e4",
".7 c #01266b",
".R c #01286b",
".K c #01296c",
"#F c #013d7c",
"au c #01538e",
"at c #01548f",
"al c #01558f",
"ag c #015891",
"#l c #033173",
".Q c #033273",
"#z c #034f8b",
"#t c #03528d",
".Y c #041563",
".L c #043274",
"#c c #043375",
"aD c #043d7b",
"#s c #043d7c",
"#d c #044583",
"av c #044f89",
"as c #044f8a",
".J c #051865",
"#5 c #051f66",
".6 c #053577",
".0 c #053777",
"#A c #053b7a",
"aC c #053d7c",
"#k c #054482",
".S c #061866",
".8 c #071663",
"#x c #077ab3",
".C c #0c1450",
"#E c #102a6e",
".t c #131c5f",
"#M c #157db9",
".H c #1b204b",
".9 c #202657",
"#V c #216994",
"#P c #223776",
"aA c #2c4175",
"ab c #2c4684",
".X c #343767",
"#0 c #348abf",
".j c #353d79",
".k c #3a3f7c",
"aI c #47507d",
"a. c #4c81a1",
".i c #585386",
"#n c #585776",
".4 c #5a6e88",
"#J c #5cb5de",
"#i c #5f849f",
"aq c #6c7291",
".l c #706a94",
"#a c #71708e",
"#3 c #737580",
".2 c #738097",
".s c #75717c",
"aO c #7a7386",
"#w c #7c9cac",
".h c #7e7d96",
".D c #817e85",
"ax c #827f8a",
"#K c #82a5b8",
"aP c #837e7f",
"#8 c #8392a2",
".r c #848176",
"aL c #86808c",
"aF c #877f92",
"#C c #8a8480",
".m c #8c8aa9",
"an c #8d827b",
"#W c #8da3ad",
".G c #999690",
".f c #9f9c8e",
"aM c #a0a19b",
"aG c #a5a39e",
".g c #a5a4a2",
"aN c #a7a499",
"ac c #a9a397",
"#S c #aba6bf",
".E c #b1b1a5",
"#Q c #b3afa4",
"#q c #b7b5b6",
".e c #b7b7b5",
"aH c #bbb4a3",
".V c #bebbb4",
".W c #bebcb6",
".q c #bfbfc0",
"#Z c #c39984",
"aQ c #c4c4c3",
"#v c #c6a498",
"aR c #c6c6c4",
".F c #cccccd",
"#L c #cd9b82",
"#. c #cdccc6",
"ae c #cfced3",
"ay c #cfcfcd",
"## c #d1d0cd",
".a c #d3d4d2",
"#o c #d7d7d4",
"#9 c #dcb29e",
"az c #dcd3c3",
".p c #dedddc",
".b c #e0e1db",
".3 c #e9c9af",
"#R c #e9e9e6",
"#4 c #e9e9e8",
"#D c #eae6d9",
".n c #eae7dc",
".c c #edebe4",
".# c #efeeed",
"aS c #f2f2f1",
"#f c #f5cbad",
".o c #f5f1e5",
"ao c #fafafa",
"ap c #fbf8f0",
"#p c #fbfbfa",
".d c #fdfcf4",
"ad c #fffefc",
"Qt c #ffffff",
"QtQtQtQt.#.a.b.c.dQtQtQtQtQtQtQt",
"QtQt.e.f.g.h.i.j.k.l.m.n.o.pQtQt",
".q.r.s.t.u.v.w.x.y.z.A.B.C.D.E.F",
".G.H.I.J.K.L.M.N.O.P.Q.R.S.T.U.V",
".W.X.Y.Z.0.1.2Qt.3.4.5.6.7.8.9#.",
"###a#b#c#d#e#f#g#h#i#j#k#l#m#n#o",
"#p#q#r#s#t#u#vQt#w#x#y#z#A#B#CQt",
"Qt#D#E#F#G#H#I#J#K#L#M#N#O#P#QQt",
"Qt#R#S#T#U#V#W#X#Y#Z#0#1#2#3#4Qt",
"QtQtQt#5#6#7#8Qt#9a.a#aaabacQtQt",
"QtQtadaeafagahaiajakalamanaoQtQt",
"QtQtQtapaqarasatauavawaxayQtQtQt",
"QtQtQtQtazaAaBaCaDaEaFaGQtQtQtQt",
"QtQtQtQtQtaHaIaJaKaLaMQtQtQtQtQt",
"QtQtQtQtQtQtaNaOaPaQQtQtQtQtQtQt",
"QtQtQtQtQtQtQtaRaSQtQtQtQtQtQtQt"};
